<?xml version="1.0" encoding="UTF-8"?><svg id="Layer_1" xmlns="http://www.w3.org/2000/svg" viewBox="0 0 444.96 73.88"><defs><style>.cls-1,.cls-2{fill:#ff6464;}.cls-3,.cls-2{opacity:0;}.cls-3,.cls-4{fill:#664eff;}</style></defs><path class="cls-1" d="m303.94,32.57c0-12.72,10.02-23.86,23.7-23.86s23.7,11.14,23.7,23.86-10.02,33.28-23.7,33.28-23.7-20.56-23.7-33.28Zm33.12,9.35c0-6.54-4.2-21.75-9.42-21.75s-9.42,15.21-9.42,21.75,4.2,12.47,9.42,12.47,9.42-5.93,9.42-12.47Z"/><path class="cls-4" d="m299.34,38.01c0,9.72-7.44,15.84-19.14,15.84h-6.06v10.32h-14.16V22.17h20.22c11.7,0,19.14,6.12,19.14,15.84Zm-14.28,0c0-3.06-1.86-4.92-5.76-4.92h-5.16v9.84h5.16c3.9,0,5.76-1.86,5.76-4.92Z"/><path class="cls-3" d="m302.88,43.17c0-12.72,10.02-21.96,23.7-21.96s23.7,9.24,23.7,21.96-10.02,21.96-23.7,21.96-23.7-9.24-23.7-21.96Zm33.12,0c0-6.54-4.2-10.5-9.42-10.5s-9.42,3.96-9.42,10.5,4.2,10.5,9.42,10.5,9.42-3.96,9.42-10.5Z"/><path class="cls-4" d="m396.84,22.17v42h-11.64l-15.96-19.08v19.08h-13.8V22.17h11.64l15.96,19.08v-19.08h13.8Z"/><path class="cls-4" d="m431.46,42.03h12.3v17.76c-5.1,3.48-12.12,5.34-18.3,5.34-13.56,0-23.46-9.06-23.46-21.96s9.9-21.96,23.76-21.96c8.28,0,14.94,2.88,19.2,8.1l-9.06,7.98c-2.64-3.06-5.7-4.62-9.42-4.62-6.24,0-10.2,4.02-10.2,10.5s3.96,10.5,10.02,10.5c1.74,0,3.42-.3,5.16-1.02v-10.62Z"/><path class="cls-4" d="m57.58,44.98v-27.93h14.16v27.51c0,6.42,2.46,8.82,6.42,8.82s6.42-2.4,6.42-8.82v-27.51h13.92v27.93c0,12.6,0,18.64-20.46,18.64s-20.46-6.04-20.46-18.64Z"/><path class="cls-1" d="m37.5,52l-.12-19.14-9.12,15.36h-6.24l-9.12-14.7v18.48H0V10h11.64l13.68,22.38,13.32-22.38h11.64l.12,42h-12.9Z"/><path class="cls-2" d="m56.88,33.1V10h14.16v22.68c0,6.42,2.46,8.82,6.42,8.82s6.42-2.4,6.42-8.82V10h13.92v23.1c0,12.6-7.56,19.86-20.46,19.86s-20.46-7.26-20.46-19.86Z"/><path class="cls-1" d="m104.28,10h14.16v31.02h18.96v10.98h-33.12V10Z"/><path class="cls-1" d="m146.52,20.98h-12.3v-10.98h38.76v10.98h-12.3v31.02h-14.16v-31.02Z"/><path class="cls-1" d="m176.64,10h14.16v42h-14.16V10Z"/><polyline class="cls-1" points="215.84 73.88 234.82 73.88 215.84 20 215.84 73.88"/><polyline class="cls-4" points="234.82 0 215.84 0 234.82 53.88 234.82 0"/></svg>